ffmpeg started on 2025-06-03 at 19:47:44
Report written to "D:\Convert\FFMetrics\reports\psnr_report-6.txt"
Log level: 32
Command line:
ffmpeg -hide_banner -nostdin -i "G:\\\xc0\xed\xe8\xec\xe5\\\xce\xed\xe3\xee\xe8\xed\xe3\xe8\\!_36_\xce\xf1\xe5\xed\xfc_2024\\DreamCast\\\xc1\xe0\xf8\xed\xff \xc1\xee\xe3\xe0\\\xd2\xc2-2\\[DC] Kami no Tou - Ouji no Kikan - 13_Telegram_HEVC.mkv" -i "G:\\\xc0\xed\xe8\xec\xe5\\\xce\xed\xe3\xee\xe8\xed\xe3\xe8\\!_36_\xce\xf1\xe5\xed\xfc_2024\\DreamCast\\\xc1\xe0\xf8\xed\xff \xc1\xee\xe3\xe0\\\xd2\xc2-2\\[DC] Kami no Tou - Ouji no Kikan - 13_Telegram.mp4" -lavfi "[0:v]settb=AVTB,setpts=PTS-STARTPTS,format=pix_fmts=yuv420p10,fps=24000/1001,scale=1920:1080:flags=bicubic[main];[1:v]settb=AVTB,setpts=PTS-STARTPTS,format=pix_fmts=yuv420p,fps=24000/1001,scale=1920:1080:flags=bicubic[ref];[main][ref]psnr=eof_action=endall:stats_file='D\\:/Convert/FFMetrics/logs/psnr_logfile-6.txt'" -f null -
Input #0, matroska,webm, from 'G:\Аниме\Онгоинги\!_36_Осень_2024\DreamCast\Башня Бога\ТВ-2\[DC] Kami no Tou - Ouji no Kikan - 13_Telegram_HEVC.mkv':
  Metadata:
    COMPATIBLE_BRANDS: isomiso2avc1mp41
    MAJOR_BRAND     : isom
    MINOR_VERSION   : 512
    ENCODER         : Lavf61.7.100
  Duration: 00:23:47.93, start: -0.021000, bitrate: 1406 kb/s
  Stream #0:0: Video: hevc (Main 10), yuv420p10le(tv, bt709, progressive), 1920x1080 [SAR 1:1 DAR 16:9], 23.98 fps, 23.98 tbr, 1k tbn (default)
      Metadata:
        HANDLER_NAME    : VideoHandler
        VENDOR_ID       : [0][0][0][0]
        ENCODER         : Lavc61.19.100 libx265
        BPS             : 1209209
        DURATION        : 00:23:47.550708333
        NUMBER_OF_FRAMES: 34227
        NUMBER_OF_BYTES : 215775910
        _STATISTICS_WRITING_APP: mkvpropedit v66.0.0 ('Josie') 64-bit
        _STATISTICS_WRITING_DATE_UTC: 2025-05-29 18:05:10
        _STATISTICS_TAGS: BPS DURATION NUMBER_OF_FRAMES NUMBER_OF_BYTES
  Stream #0:1: Audio: aac (LC), 48000 Hz, stereo, fltp (default)
      Metadata:
        HANDLER_NAME    : SoundHandler
        VENDOR_ID       : [0][0][0][0]
        ENCODER         : Lavc61.19.100 aac
        BPS             : 193339
        DURATION        : 00:23:47.925000000
        NUMBER_OF_FRAMES: 66935
        NUMBER_OF_BYTES : 34509296
        _STATISTICS_WRITING_APP: mkvpropedit v66.0.0 ('Josie') 64-bit
        _STATISTICS_WRITING_DATE_UTC: 2025-05-29 18:05:10
        _STATISTICS_TAGS: BPS DURATION NUMBER_OF_FRAMES NUMBER_OF_BYTES
Input #1, mov,mp4,m4a,3gp,3g2,mj2, from 'G:\Аниме\Онгоинги\!_36_Осень_2024\DreamCast\Башня Бога\ТВ-2\[DC] Kami no Tou - Ouji no Kikan - 13_Telegram.mp4':
  Metadata:
    major_brand     : isom
    minor_version   : 512
    compatible_brands: isomiso2avc1mp41
    encoder         : Lavf61.1.100
  Duration: 00:23:47.86, start: 0.000000, bitrate: 3219 kb/s
  Stream #1:0[0x1](und): Video: h264 (High) (avc1 / 0x31637661), yuv420p(tv, bt709, progressive), 1920x1080 [SAR 1:1 DAR 16:9], 3071 kb/s, 23.98 fps, 23.98 tbr, 24k tbn (default)
      Metadata:
        handler_name    : VideoHandler
        vendor_id       : [0][0][0][0]
        encoder         : Lavc61.3.100 h264_qsv
  Stream #1:1[0x2](und): Audio: aac (HE-AACv2) (mp4a / 0x6134706D), 48000 Hz, stereo, fltp, 144 kb/s (default)
      Metadata:
        handler_name    : SoundHandler
        vendor_id       : [0][0][0][0]
Stream mapping:
  Stream #0:0 (hevc) -> settb:default
  Stream #1:0 (h264) -> settb:default
  psnr:default -> Stream #0:0 (wrapped_avframe)
  Stream #0:1 -> #0:1 (aac (native) -> pcm_s16le (native))
Output #0, null, to 'pipe:':
  Metadata:
    COMPATIBLE_BRANDS: isomiso2avc1mp41
    MAJOR_BRAND     : isom
    MINOR_VERSION   : 512
    encoder         : Lavf61.7.100
  Stream #0:0: Video: wrapped_avframe, yuv420p10le(tv, bt709, progressive), 1920x1080 [SAR 1:1 DAR 16:9], q=2-31, 200 kb/s, 23.98 fps, 23.98 tbn
      Metadata:
        encoder         : Lavc61.19.100 wrapped_avframe
  Stream #0:1: Audio: pcm_s16le, 48000 Hz, stereo, s16, 1536 kb/s (default)
      Metadata:
        HANDLER_NAME    : SoundHandler
        VENDOR_ID       : [0][0][0][0]
        _STATISTICS_TAGS: BPS DURATION NUMBER_OF_FRAMES NUMBER_OF_BYTES
        BPS             : 193339
        DURATION        : 00:23:47.925000000
        NUMBER_OF_FRAMES: 66935
        NUMBER_OF_BYTES : 34509296
        _STATISTICS_WRITING_APP: mkvpropedit v66.0.0 ('Josie') 64-bit
        _STATISTICS_WRITING_DATE_UTC: 2025-05-29 18:05:10
        encoder         : Lavc61.19.100 pcm_s16le
frame=  175 fps=0.0 q=-0.0 size=N/A time=00:00:07.29 bitrate=N/A speed=14.1x    frame=  425 fps=414 q=-0.0 size=N/A time=00:00:17.72 bitrate=N/A speed=17.3x    frame=  690 fps=445 q=-0.0 size=N/A time=00:00:28.77 bitrate=N/A speed=18.5x    frame=  934 fps=454 q=-0.0 size=N/A time=00:00:38.95 bitrate=N/A speed=18.9x    frame= 1196 fps=463 q=-0.0 size=N/A time=00:00:49.88 bitrate=N/A speed=19.3x    frame= 1457 fps=471 q=-0.0 size=N/A time=00:01:00.76 bitrate=N/A speed=19.7x    frame= 1732 fps=480 q=-0.0 size=N/A time=00:01:12.23 bitrate=N/A speed=  20x    frame= 2001 fps=486 q=-0.0 size=N/A time=00:01:23.45 bitrate=N/A speed=20.3x    frame= 2267 fps=488 q=-0.0 size=N/A time=00:01:34.55 bitrate=N/A speed=20.4x    frame= 2489 fps=483 q=-0.0 size=N/A time=00:01:43.81 bitrate=N/A speed=20.2x    frame= 2624 fps=463 q=-0.0 size=N/A time=00:01:49.44 bitrate=N/A speed=19.3x    frame= 2775 fps=449 q=-0.0 size=N/A time=00:01:55.74 bitrate=N/A speed=18.7x    frame= 2892 fps=432 q=-0.0 size=N/A time=00:02:00.62 bitrate=N/A speed=  18x    frame= 3050 fps=422 q=-0.0 size=N/A time=00:02:07.21 bitrate=N/A speed=17.6x    frame= 3168 fps=409 q=-0.0 size=N/A time=00:02:12.13 bitrate=N/A speed=17.1x    frame= 3279 fps=397 q=-0.0 size=N/A time=00:02:16.76 bitrate=N/A speed=16.6x    frame= 3419 fps=390 q=-0.0 size=N/A time=00:02:22.60 bitrate=N/A speed=16.3x    frame= 3582 fps=386 q=-0.0 size=N/A time=00:02:29.39 bitrate=N/A speed=16.1x    frame= 3743 fps=382 q=-0.0 size=N/A time=00:02:36.11 bitrate=N/A speed=15.9x    frame= 3891 fps=378 q=-0.0 size=N/A time=00:02:42.28 bitrate=N/A speed=15.7x    frame= 4008 fps=370 q=-0.0 size=N/A time=00:02:47.16 bitrate=N/A speed=15.4x    frame= 4120 fps=363 q=-0.0 size=N/A time=00:02:51.83 bitrate=N/A speed=15.2x    frame= 4229 fps=357 q=-0.0 size=N/A time=00:02:56.38 bitrate=N/A speed=14.9x    frame= 4353 fps=352 q=-0.0 size=N/A time=00:03:01.55 bitrate=N/A speed=14.7x    frame= 4500 fps=349 q=-0.0 size=N/A time=00:03:07.68 bitrate=N/A speed=14.6x    frame= 4660 fps=348 q=-0.0 size=N/A time=00:03:14.36 bitrate=N/A speed=14.5x    frame= 4937 fps=355 q=-0.0 size=N/A time=00:03:25.91 bitrate=N/A speed=14.8x    frame= 5206 fps=361 q=-0.0 size=N/A time=00:03:37.13 bitrate=N/A speed=  15x    frame= 5486 fps=367 q=-0.0 size=N/A time=00:03:48.81 bitrate=N/A speed=15.3x    frame= 5737 fps=371 q=-0.0 size=N/A time=00:03:59.28 bitrate=N/A speed=15.5x    frame= 5980 fps=374 q=-0.0 size=N/A time=00:04:09.41 bitrate=N/A speed=15.6x    frame= 6213 fps=377 q=-0.0 size=N/A time=00:04:19.13 bitrate=N/A speed=15.7x    frame= 6471 fps=380 q=-0.0 size=N/A time=00:04:29.89 bitrate=N/A speed=15.9x    frame= 6735 fps=384 q=-0.0 size=N/A time=00:04:40.90 bitrate=N/A speed=  16x    frame= 6995 fps=387 q=-0.0 size=N/A time=00:04:51.74 bitrate=N/A speed=16.2x    frame= 7255 fps=391 q=-0.0 size=N/A time=00:05:02.63 bitrate=N/A speed=16.3x    frame= 7518 fps=394 q=-0.0 size=N/A time=00:05:13.56 bitrate=N/A speed=16.4x    frame= 7749 fps=395 q=-0.0 size=N/A time=00:05:23.19 bitrate=N/A speed=16.5x    frame= 7988 fps=397 q=-0.0 size=N/A time=00:05:33.16 bitrate=N/A speed=16.6x    frame= 8263 fps=400 q=-0.0 size=N/A time=00:05:44.63 bitrate=N/A speed=16.7x    frame= 8507 fps=402 q=-0.0 size=N/A time=00:05:54.81 bitrate=N/A speed=16.8x    frame= 8744 fps=404 q=-0.0 size=N/A time=00:06:04.69 bitrate=N/A speed=16.8x    frame= 9004 fps=406 q=-0.0 size=N/A time=00:06:15.54 bitrate=N/A speed=16.9x    frame= 9257 fps=408 q=-0.0 size=N/A time=00:06:26.09 bitrate=N/A speed=  17x    frame= 9526 fps=410 q=-0.0 size=N/A time=00:06:37.31 bitrate=N/A speed=17.1x    frame= 9784 fps=413 q=-0.0 size=N/A time=00:06:48.07 bitrate=N/A speed=17.2x    frame=10056 fps=415 q=-0.0 size=N/A time=00:06:59.41 bitrate=N/A speed=17.3x    frame=10316 fps=417 q=-0.0 size=N/A time=00:07:10.26 bitrate=N/A speed=17.4x    frame=10543 fps=417 q=-0.0 size=N/A time=00:07:19.73 bitrate=N/A speed=17.4x    frame=10786 fps=418 q=-0.0 size=N/A time=00:07:29.86 bitrate=N/A speed=17.4x    frame=11058 fps=420 q=-0.0 size=N/A time=00:07:41.21 bitrate=N/A speed=17.5x    frame=11323 fps=422 q=-0.0 size=N/A time=00:07:52.26 bitrate=N/A speed=17.6x    frame=11554 fps=422 q=-0.0 size=N/A time=00:08:01.89 bitrate=N/A speed=17.6x    frame=11828 fps=424 q=-0.0 size=N/A time=00:08:13.32 bitrate=N/A speed=17.7x    frame=12091 fps=426 q=-0.0 size=N/A time=00:08:24.29 bitrate=N/A speed=17.8x    frame=12344 fps=427 q=-0.0 size=N/A time=00:08:34.84 bitrate=N/A speed=17.8x    frame=12595 fps=428 q=-0.0 size=N/A time=00:08:45.31 bitrate=N/A speed=17.9x    frame=12795 fps=427 q=-0.0 size=N/A time=00:08:53.65 bitrate=N/A speed=17.8x    frame=12993 fps=427 q=-0.0 size=N/A time=00:09:01.91 bitrate=N/A speed=17.8x    frame=13272 fps=429 q=-0.0 size=N/A time=00:09:13.55 bitrate=N/A speed=17.9x    frame=13553 fps=430 q=-0.0 size=N/A time=00:09:25.27 bitrate=N/A speed=  18x    frame=13788 fps=431 q=-0.0 size=N/A time=00:09:35.07 bitrate=N/A speed=  18x    frame=13970 fps=430 q=-0.0 size=N/A time=00:09:42.66 bitrate=N/A speed=17.9x    frame=14232 fps=431 q=-0.0 size=N/A time=00:09:53.59 bitrate=N/A speed=  18x    frame=14483 fps=432 q=-0.0 size=N/A time=00:10:04.06 bitrate=N/A speed=  18x    frame=14752 fps=433 q=-0.0 size=N/A time=00:10:15.28 bitrate=N/A speed=18.1x    frame=15015 fps=434 q=-0.0 size=N/A time=00:10:26.25 bitrate=N/A speed=18.1x    frame=15265 fps=435 q=-0.0 size=N/A time=00:10:36.67 bitrate=N/A speed=18.1x    frame=15524 fps=436 q=-0.0 size=N/A time=00:10:47.48 bitrate=N/A speed=18.2x    frame=15803 fps=437 q=-0.0 size=N/A time=00:10:59.11 bitrate=N/A speed=18.2x    frame=16064 fps=439 q=-0.0 size=N/A time=00:11:10.00 bitrate=N/A speed=18.3x    frame=16336 fps=440 q=-0.0 size=N/A time=00:11:21.34 bitrate=N/A speed=18.3x    frame=16613 fps=441 q=-0.0 size=N/A time=00:11:32.90 bitrate=N/A speed=18.4x    frame=16899 fps=442 q=-0.0 size=N/A time=00:11:44.82 bitrate=N/A speed=18.5x    frame=17167 fps=444 q=-0.0 size=N/A time=00:11:56.00 bitrate=N/A speed=18.5x    frame=17382 fps=443 q=-0.0 size=N/A time=00:12:04.97 bitrate=N/A speed=18.5x    frame=17646 fps=444 q=-0.0 size=N/A time=00:12:15.98 bitrate=N/A speed=18.5x    frame=17895 fps=445 q=-0.0 size=N/A time=00:12:26.37 bitrate=N/A speed=18.5x    frame=18130 fps=445 q=-0.0 size=N/A time=00:12:36.17 bitrate=N/A speed=18.5x    frame=18351 fps=445 q=-0.0 size=N/A time=00:12:45.38 bitrate=N/A speed=18.5x    frame=18560 fps=444 q=-0.0 size=N/A time=00:12:54.10 bitrate=N/A speed=18.5x    frame=18749 fps=443 q=-0.0 size=N/A time=00:13:01.98 bitrate=N/A speed=18.5x    frame=19003 fps=444 q=-0.0 size=N/A time=00:13:12.58 bitrate=N/A speed=18.5x    frame=19282 fps=445 q=-0.0 size=N/A time=00:13:24.22 bitrate=N/A speed=18.6x    frame=19531 fps=445 q=-0.0 size=N/A time=00:13:34.60 bitrate=N/A speed=18.6x    frame=19785 fps=446 q=-0.0 size=N/A time=00:13:45.19 bitrate=N/A speed=18.6x    frame=20030 fps=446 q=-0.0 size=N/A time=00:13:55.41 bitrate=N/A speed=18.6x    frame=20311 fps=447 q=-0.0 size=N/A time=00:14:07.13 bitrate=N/A speed=18.7x    frame=20574 fps=448 q=-0.0 size=N/A time=00:14:18.10 bitrate=N/A speed=18.7x    frame=20864 fps=449 q=-0.0 size=N/A time=00:14:30.20 bitrate=N/A speed=18.7x    frame=21127 fps=450 q=-0.0 size=N/A time=00:14:41.17 bitrate=N/A speed=18.8x    frame=21368 fps=450 q=-0.0 size=N/A time=00:14:51.22 bitrate=N/A speed=18.8x    frame=21615 fps=450 q=-0.0 size=N/A time=00:15:01.52 bitrate=N/A speed=18.8x    frame=21843 fps=450 q=-0.0 size=N/A time=00:15:11.03 bitrate=N/A speed=18.8x    frame=22090 fps=451 q=-0.0 size=N/A time=00:15:21.33 bitrate=N/A speed=18.8x    frame=22316 fps=451 q=-0.0 size=N/A time=00:15:30.76 bitrate=N/A speed=18.8x    frame=22568 fps=451 q=-0.0 size=N/A time=00:15:41.27 bitrate=N/A speed=18.8x    frame=22836 fps=452 q=-0.0 size=N/A time=00:15:52.45 bitrate=N/A speed=18.8x    frame=23069 fps=452 q=-0.0 size=N/A time=00:16:02.16 bitrate=N/A speed=18.8x    frame=23319 fps=452 q=-0.0 size=N/A time=00:16:12.59 bitrate=N/A speed=18.8x    frame=23594 fps=453 q=-0.0 size=N/A time=00:16:24.06 bitrate=N/A speed=18.9x    frame=23845 fps=453 q=-0.0 size=N/A time=00:16:34.53 bitrate=N/A speed=18.9x    frame=24089 fps=453 q=-0.0 size=N/A time=00:16:44.71 bitrate=N/A speed=18.9x    frame=24343 fps=454 q=-0.0 size=N/A time=00:16:55.30 bitrate=N/A speed=18.9x    frame=24551 fps=453 q=-0.0 size=N/A time=00:17:03.98 bitrate=N/A speed=18.9x    frame=24801 fps=453 q=-0.0 size=N/A time=00:17:14.40 bitrate=N/A speed=18.9x    frame=25026 fps=453 q=-0.0 size=N/A time=00:17:23.83 bitrate=N/A speed=18.9x    frame=25263 fps=453 q=-0.0 size=N/A time=00:17:33.67 bitrate=N/A speed=18.9x    frame=25512 fps=453 q=-0.0 size=N/A time=00:17:44.06 bitrate=N/A speed=18.9x    frame=25749 fps=454 q=-0.0 size=N/A time=00:17:53.94 bitrate=N/A speed=18.9x    frame=25971 fps=453 q=-0.0 size=N/A time=00:18:03.20 bitrate=N/A speed=18.9x    frame=26226 fps=454 q=-0.0 size=N/A time=00:18:13.84 bitrate=N/A speed=18.9x    frame=26480 fps=454 q=-0.0 size=N/A time=00:18:24.43 bitrate=N/A speed=18.9x    frame=26732 fps=454 q=-0.0 size=N/A time=00:18:34.94 bitrate=N/A speed=  19x    frame=26970 fps=454 q=-0.0 size=N/A time=00:18:44.87 bitrate=N/A speed=  19x    frame=27220 fps=455 q=-0.0 size=N/A time=00:18:55.30 bitrate=N/A speed=  19x    frame=27483 fps=455 q=-0.0 size=N/A time=00:19:06.27 bitrate=N/A speed=  19x    frame=27747 fps=456 q=-0.0 size=N/A time=00:19:17.28 bitrate=N/A speed=  19x    frame=28001 fps=456 q=-0.0 size=N/A time=00:19:27.87 bitrate=N/A speed=  19x    frame=28278 fps=457 q=-0.0 size=N/A time=00:19:39.42 bitrate=N/A speed=  19x    frame=28555 fps=457 q=-0.0 size=N/A time=00:19:50.98 bitrate=N/A speed=19.1x    frame=28831 fps=458 q=-0.0 size=N/A time=00:20:02.49 bitrate=N/A speed=19.1x    frame=29078 fps=458 q=-0.0 size=N/A time=00:20:12.79 bitrate=N/A speed=19.1x    frame=29365 fps=459 q=-0.0 size=N/A time=00:20:24.76 bitrate=N/A speed=19.1x    frame=29645 fps=460 q=-0.0 size=N/A time=00:20:36.44 bitrate=N/A speed=19.2x    frame=29895 fps=460 q=-0.0 size=N/A time=00:20:46.87 bitrate=N/A speed=19.2x    frame=30173 fps=460 q=-0.0 size=N/A time=00:20:58.50 bitrate=N/A speed=19.2x    frame=30443 fps=461 q=-0.0 size=N/A time=00:21:09.72 bitrate=N/A speed=19.2x    frame=30715 fps=461 q=-0.0 size=N/A time=00:21:21.07 bitrate=N/A speed=19.2x    frame=30966 fps=462 q=-0.0 size=N/A time=00:21:31.54 bitrate=N/A speed=19.2x    frame=31229 fps=462 q=-0.0 size=N/A time=00:21:42.50 bitrate=N/A speed=19.3x    frame=31472 fps=462 q=-0.0 size=N/A time=00:21:52.64 bitrate=N/A speed=19.3x    frame=31677 fps=461 q=-0.0 size=N/A time=00:22:01.19 bitrate=N/A speed=19.2x    frame=31888 fps=461 q=-0.0 size=N/A time=00:22:09.99 bitrate=N/A speed=19.2x    frame=32045 fps=460 q=-0.0 size=N/A time=00:22:16.54 bitrate=N/A speed=19.2x    frame=32223 fps=459 q=-0.0 size=N/A time=00:22:23.96 bitrate=N/A speed=19.1x    frame=32436 fps=459 q=-0.0 size=N/A time=00:22:32.85 bitrate=N/A speed=19.1x    frame=32613 fps=458 q=-0.0 size=N/A time=00:22:40.23 bitrate=N/A speed=19.1x    frame=32796 fps=457 q=-0.0 size=N/A time=00:22:47.86 bitrate=N/A speed=19.1x    frame=32996 fps=457 q=-0.0 size=N/A time=00:22:56.20 bitrate=N/A speed=  19x    frame=33177 fps=456 q=-0.0 size=N/A time=00:23:03.75 bitrate=N/A speed=  19x    frame=33363 fps=455 q=-0.0 size=N/A time=00:23:11.51 bitrate=N/A speed=  19x    frame=33643 fps=456 q=-0.0 size=N/A time=00:23:23.19 bitrate=N/A speed=  19x    frame=33916 fps=456 q=-0.0 size=N/A time=00:23:34.57 bitrate=N/A speed=  19x    frame=34171 fps=457 q=-0.0 size=N/A time=00:23:45.21 bitrate=N/A speed=  19x    [Parsed_psnr_10 @ 000001d7211794c0] PSNR y:48.848779 u:51.465417 v:51.288336 average:49.539575 min:36.897987 max:inf
[out#0/null @ 000001d71ed35880] video:14707KiB audio:267740KiB subtitle:0KiB other streams:0KiB global headers:0KiB muxing overhead: unknown
frame=34227 fps=457 q=-0.0 Lsize=N/A time=00:23:47.55 bitrate=N/A speed=  19x    
